<svg width="35" height="25" viewBox="0 0 35 25" fill="none" xmlns="http://www.w3.org/2000/svg">
<path d="M17.5 24.889C27.165 24.889 35 17.1783 35 7.66675H0C0 17.1783 7.83502 24.889 17.5 24.889Z" fill="black"/>
<path d="M10.5 7.66675C10.5 3.86212 13.634 0.777859 17.5 0.77786C21.366 0.77786 24.5 3.86212 24.5 7.66675" stroke="black" stroke-width="0.777778"/>
<path d="M17.2768 20.2511C16.8008 20.2511 16.3808 20.15 16.0168 19.9478C15.6528 19.7424 15.3682 19.4578 15.1628 19.0938C14.9606 18.7298 14.8595 18.3098 14.8595 17.8338V15.6684C14.8595 15.1924 14.9606 14.7724 15.1628 14.4084C15.3682 14.0444 15.6528 13.7613 16.0168 13.5591C16.3808 13.3538 16.8008 13.2511 17.2768 13.2511C17.7528 13.2511 18.1713 13.3538 18.5322 13.5591C18.8962 13.7613 19.1808 14.0444 19.3862 14.4084C19.5915 14.7724 19.6942 15.1924 19.6942 15.6684V17.8338C19.6942 18.3098 19.5915 18.7298 19.3862 19.0938C19.1808 19.4578 18.8962 19.7424 18.5322 19.9478C18.1713 20.15 17.7528 20.2511 17.2768 20.2511ZM17.2768 19.1824C17.5133 19.1824 17.7279 19.1264 17.9208 19.0144C18.1137 18.8993 18.2662 18.7469 18.3782 18.5571C18.4902 18.3642 18.5462 18.1495 18.5462 17.9131V15.5844C18.5462 15.3449 18.4902 15.1302 18.3782 14.9404C18.2662 14.7475 18.1137 14.5951 17.9208 14.4831C17.7279 14.368 17.5133 14.3104 17.2768 14.3104C17.0404 14.3104 16.8257 14.368 16.6328 14.4831C16.4399 14.5951 16.2875 14.7475 16.1755 14.9404C16.0635 15.1302 16.0075 15.3449 16.0075 15.5844V17.9131C16.0075 18.1495 16.0635 18.3642 16.1755 18.5571C16.2875 18.7469 16.4399 18.8993 16.6328 19.0144C16.8257 19.1264 17.0404 19.1824 17.2768 19.1824Z" fill="#EAE5DD"/>
</svg>
