<svg width="63" height="24" viewBox="0 0 63 24" fill="none" xmlns="http://www.w3.org/2000/svg">
<path d="M32.77 11.946C33.414 12.086 33.9087 12.366 34.254 12.786C34.6087 13.1967 34.786 13.7287 34.786 14.382C34.786 15.222 34.4733 15.8707 33.848 16.328C33.232 16.776 32.3173 17 31.104 17H26.596V7.2H30.824C31.916 7.2 32.7607 7.41933 33.358 7.858C33.9647 8.29667 34.268 8.91733 34.268 9.72C34.268 10.2613 34.1327 10.7233 33.862 11.106C33.6007 11.4793 33.2367 11.7593 32.77 11.946ZM27.632 8.054V11.61H30.754C31.5473 11.61 32.1587 11.4607 32.588 11.162C33.0173 10.854 33.232 10.4107 33.232 9.832C33.232 9.25333 33.0173 8.81467 32.588 8.516C32.1587 8.208 31.5473 8.054 30.754 8.054H27.632ZM31.09 16.146C31.9673 16.146 32.63 15.9967 33.078 15.698C33.526 15.3993 33.75 14.9327 33.75 14.298C33.75 13.0753 32.8633 12.464 31.09 12.464H27.632V16.146H31.09ZM36.9407 9.636H37.9347V17H36.9407V9.636ZM37.4447 8.026C37.2394 8.026 37.0667 7.956 36.9267 7.816C36.7867 7.676 36.7167 7.508 36.7167 7.312C36.7167 7.12533 36.7867 6.962 36.9267 6.822C37.0667 6.682 37.2394 6.612 37.4447 6.612C37.65 6.612 37.8227 6.682 37.9627 6.822C38.1027 6.95267 38.1727 7.11133 38.1727 7.298C38.1727 7.50333 38.1027 7.676 37.9627 7.816C37.8227 7.956 37.65 8.026 37.4447 8.026ZM41.6525 11.078C41.8858 10.5833 42.2311 10.21 42.6885 9.958C43.1551 9.706 43.7291 9.58 44.4105 9.58V10.546L44.1725 10.532C43.3978 10.532 42.7911 10.77 42.3525 11.246C41.9138 11.722 41.6945 12.3893 41.6945 13.248V17H40.7005V9.636H41.6525V11.078ZM49.1939 17.07C48.4659 17.07 47.8125 16.9113 47.2339 16.594C46.6645 16.2767 46.2165 15.8333 45.8899 15.264C45.5632 14.6853 45.3999 14.0367 45.3999 13.318C45.3999 12.5993 45.5632 11.9553 45.8899 11.386C46.2165 10.8167 46.6645 10.3733 47.2339 10.056C47.8125 9.73867 48.4659 9.58 49.1939 9.58C49.8285 9.58 50.3932 9.706 50.8879 9.958C51.3919 10.2007 51.7885 10.56 52.0779 11.036L51.3359 11.54C51.0932 11.176 50.7852 10.9053 50.4119 10.728C50.0385 10.5413 49.6325 10.448 49.1939 10.448C48.6619 10.448 48.1812 10.5693 47.7519 10.812C47.3319 11.0453 47.0005 11.3813 46.7579 11.82C46.5245 12.2587 46.4079 12.758 46.4079 13.318C46.4079 13.8873 46.5245 14.3913 46.7579 14.83C47.0005 15.2593 47.3319 15.5953 47.7519 15.838C48.1812 16.0713 48.6619 16.188 49.1939 16.188C49.6325 16.188 50.0385 16.0993 50.4119 15.922C50.7852 15.7447 51.0932 15.474 51.3359 15.11L52.0779 15.614C51.7885 16.09 51.3919 16.454 50.8879 16.706C50.3839 16.9487 49.8192 17.07 49.1939 17.07ZM57.6732 9.58C58.5972 9.58 59.3298 9.85067 59.8712 10.392C60.4218 10.924 60.6972 11.7033 60.6972 12.73V17H59.7032V12.828C59.7032 12.0627 59.5118 11.4793 59.1292 11.078C58.7465 10.6767 58.2005 10.476 57.4912 10.476C56.6978 10.476 56.0678 10.714 55.6012 11.19C55.1438 11.6567 54.9152 12.3053 54.9152 13.136V17H53.9212V6.612H54.9152V10.924C55.1858 10.4947 55.5592 10.1633 56.0352 9.93C56.5112 9.69667 57.0572 9.58 57.6732 9.58Z" fill="black"/>
<path d="M16.3214 11.7477L14.1032 10.9714C13.218 10.6614 12.2449 10.7235 11.4063 11.1434C10.5677 11.5633 9.93479 12.3049 9.65233 13.1992L9.07187 15.0372L8.50039 15.4657V11.6274C8.49985 11.1157 8.75588 10.6377 9.18178 10.3546L9.1789 10.3503C9.19423 10.3421 9.20875 10.3322 9.22214 10.3212C10.2934 9.24992 10.853 7.77007 10.7589 6.25802L10.6337 4.24993C10.6258 4.12356 10.5302 4.02021 10.4049 4.00234C10.2799 3.98581 10.1601 4.0583 10.1167 4.17677L9.25427 6.59049C8.93185 7.49222 8.76699 8.44256 8.76712 9.40025V10.0011C8.26304 10.3899 7.96752 10.9907 7.96712 11.6276V12.1559L7.69604 11.8845C7.65039 9.90192 6.36485 8.16103 4.48279 7.53473L2.71847 6.94825C2.62724 6.91766 2.52677 6.93874 2.45535 7.00293C2.384 7.06753 2.35267 7.16532 2.37369 7.25923L2.66706 8.58218C3.13681 10.7409 5.0526 12.277 7.26197 12.266H7.32355L7.96712 12.9097V18.7674L7.43386 18.5006V17.9522C7.43386 16.6109 6.78895 15.3511 5.70073 14.567C4.61231 13.7827 3.21345 13.5693 1.94089 13.9935L0.683266 14.4128C0.573895 14.4488 0.5 14.5509 0.5 14.6661C0.5 14.7812 0.573895 14.8834 0.683266 14.9194L0.969009 15.0147C2.33755 15.4697 3.61485 16.1642 4.74069 17.0658L7.00039 18.8735C7.01585 18.8842 7.03225 18.8931 7.04959 18.9002L7.04798 18.9038L7.96712 19.3639V19.9988H8.50039V16.1324L9.46043 15.4123L9.45755 15.4086C9.46846 15.4023 9.4789 15.3952 9.48887 15.3876C11.1777 13.7046 13.3768 12.6291 15.7419 12.3294L16.2666 12.2639C16.3894 12.2483 16.4854 12.1504 16.4985 12.0275C16.5116 11.9044 16.4383 11.7885 16.3214 11.7477Z" fill="black"/>
</svg>
