<svg width="76" height="24" viewBox="0 0 76 24" fill="none" xmlns="http://www.w3.org/2000/svg">
<path d="M31.742 14.382H26.282L25.106 17H24.028L28.508 7.2H29.53L34.01 17H32.918L31.742 14.382ZM31.364 13.542L29.012 8.278L26.66 13.542H31.364ZM39.2152 9.58C39.9058 9.58 40.5312 9.73867 41.0912 10.056C41.6512 10.364 42.0898 10.8027 42.4072 11.372C42.7245 11.9413 42.8832 12.59 42.8832 13.318C42.8832 14.0553 42.7245 14.7087 42.4072 15.278C42.0898 15.8473 41.6512 16.2907 41.0912 16.608C40.5405 16.916 39.9152 17.07 39.2152 17.07C38.6178 17.07 38.0765 16.9487 37.5912 16.706C37.1152 16.454 36.7232 16.09 36.4152 15.614V19.716H35.4212V9.636H36.3732V11.092C36.6718 10.6067 37.0638 10.2333 37.5492 9.972C38.0438 9.71067 38.5992 9.58 39.2152 9.58ZM39.1452 16.188C39.6585 16.188 40.1252 16.0713 40.5452 15.838C40.9652 15.5953 41.2918 15.2547 41.5252 14.816C41.7678 14.3773 41.8892 13.878 41.8892 13.318C41.8892 12.758 41.7678 12.2633 41.5252 11.834C41.2918 11.3953 40.9652 11.0547 40.5452 10.812C40.1252 10.5693 39.6585 10.448 39.1452 10.448C38.6225 10.448 38.1512 10.5693 37.7312 10.812C37.3205 11.0547 36.9938 11.3953 36.7512 11.834C36.5178 12.2633 36.4012 12.758 36.4012 13.318C36.4012 13.878 36.5178 14.3773 36.7512 14.816C36.9938 15.2547 37.3205 15.5953 37.7312 15.838C38.1512 16.0713 38.6225 16.188 39.1452 16.188ZM45.8614 11.078C46.0948 10.5833 46.4401 10.21 46.8974 9.958C47.3641 9.706 47.9381 9.58 48.6194 9.58V10.546L48.3814 10.532C47.6068 10.532 47.0001 10.77 46.5614 11.246C46.1228 11.722 45.9034 12.3893 45.9034 13.248V17H44.9094V9.636H45.8614V11.078ZM50.4192 9.636H51.4132V17H50.4192V9.636ZM50.9232 8.026C50.7179 8.026 50.5452 7.956 50.4052 7.816C50.2652 7.676 50.1952 7.508 50.1952 7.312C50.1952 7.12533 50.2652 6.962 50.4052 6.822C50.5452 6.682 50.7179 6.612 50.9232 6.612C51.1285 6.612 51.3012 6.682 51.4412 6.822C51.5812 6.95267 51.6512 7.11133 51.6512 7.298C51.6512 7.50333 51.5812 7.676 51.4412 7.816C51.3012 7.956 51.1285 8.026 50.9232 8.026ZM57.231 17.07C56.503 17.07 55.8496 16.9113 55.271 16.594C54.7016 16.2767 54.2536 15.8333 53.927 15.264C53.6003 14.6853 53.437 14.0367 53.437 13.318C53.437 12.5993 53.6003 11.9553 53.927 11.386C54.2536 10.8167 54.7016 10.3733 55.271 10.056C55.8496 9.73867 56.503 9.58 57.231 9.58C57.8656 9.58 58.4303 9.706 58.925 9.958C59.429 10.2007 59.8256 10.56 60.115 11.036L59.373 11.54C59.1303 11.176 58.8223 10.9053 58.449 10.728C58.0756 10.5413 57.6696 10.448 57.231 10.448C56.699 10.448 56.2183 10.5693 55.789 10.812C55.369 11.0453 55.0376 11.3813 54.795 11.82C54.5616 12.2587 54.445 12.758 54.445 13.318C54.445 13.8873 54.5616 14.3913 54.795 14.83C55.0376 15.2593 55.369 15.5953 55.789 15.838C56.2183 16.0713 56.699 16.188 57.231 16.188C57.6696 16.188 58.0756 16.0993 58.449 15.922C58.8223 15.7447 59.1303 15.474 59.373 15.11L60.115 15.614C59.8256 16.09 59.429 16.454 58.925 16.706C58.421 16.9487 57.8563 17.07 57.231 17.07ZM64.9546 17.07C64.2453 17.07 63.6059 16.9113 63.0366 16.594C62.4673 16.2673 62.0193 15.8193 61.6926 15.25C61.3659 14.6807 61.2026 14.0367 61.2026 13.318C61.2026 12.5993 61.3659 11.9553 61.6926 11.386C62.0193 10.8167 62.4673 10.3733 63.0366 10.056C63.6059 9.73867 64.2453 9.58 64.9546 9.58C65.6639 9.58 66.3033 9.73867 66.8726 10.056C67.4419 10.3733 67.8853 10.8167 68.2026 11.386C68.5293 11.9553 68.6926 12.5993 68.6926 13.318C68.6926 14.0367 68.5293 14.6807 68.2026 15.25C67.8853 15.8193 67.4419 16.2673 66.8726 16.594C66.3033 16.9113 65.6639 17.07 64.9546 17.07ZM64.9546 16.188C65.4773 16.188 65.9439 16.0713 66.3546 15.838C66.7746 15.5953 67.1013 15.2547 67.3346 14.816C67.5679 14.3773 67.6846 13.878 67.6846 13.318C67.6846 12.758 67.5679 12.2587 67.3346 11.82C67.1013 11.3813 66.7746 11.0453 66.3546 10.812C65.9439 10.5693 65.4773 10.448 64.9546 10.448C64.4319 10.448 63.9606 10.5693 63.5406 10.812C63.1299 11.0453 62.8033 11.3813 62.5606 11.82C62.3273 12.2587 62.2106 12.758 62.2106 13.318C62.2106 13.878 62.3273 14.3773 62.5606 14.816C62.8033 15.2547 63.1299 15.5953 63.5406 15.838C63.9606 16.0713 64.4319 16.188 64.9546 16.188ZM74.5999 16.552C74.4133 16.72 74.1799 16.8507 73.8999 16.944C73.6293 17.028 73.3446 17.07 73.0459 17.07C72.3553 17.07 71.8233 16.8833 71.4499 16.51C71.0766 16.1367 70.8899 15.6093 70.8899 14.928V10.476H69.5739V9.636H70.8899V8.026H71.8839V9.636H74.1239V10.476H71.8839V14.872C71.8839 15.3107 71.9913 15.6467 72.2059 15.88C72.4299 16.104 72.7473 16.216 73.1579 16.216C73.3633 16.216 73.5593 16.1833 73.7459 16.118C73.9419 16.0527 74.1099 15.9593 74.2499 15.838L74.5999 16.552Z" fill="black"/>
<g clip-path="url(#clip0_1135_3059)">
<g clip-path="url(#clip1_1135_3059)">
<path d="M8.19094 5.00829C8.05475 4.2501 6.98666 3.80748 5.80528 4.01966C4.91163 4.18016 3.8486 5.18198 3.38382 5.66044C3.32638 5.71957 3.30097 5.80282 3.31557 5.88398C3.33016 5.96513 3.38294 6.03429 3.45738 6.06969C4.05963 6.35654 5.40482 6.92582 6.29844 6.76532C7.47978 6.55316 8.32713 5.76651 8.19094 5.00829Z" fill="black"/>
<path d="M12.0103 12.1612C11.3077 11.3187 10.9215 10.2563 10.9215 9.15922C10.9215 8.03697 10.1791 7.08841 9.15869 6.77716C9.40528 6.34872 9.91225 5.60854 10.6583 5.20004C10.789 5.12847 10.8478 4.97191 10.7959 4.83222L10.4856 3.996C10.4543 3.91147 10.3866 3.8455 10.3013 3.81629C10.216 3.78704 10.1221 3.79769 10.0455 3.84513C9.51447 4.17372 8.49497 5.01232 8.33219 6.67141C7.00281 6.72347 5.94094 7.81707 5.94094 9.15922C5.94094 10.2587 5.55638 11.3168 4.85225 12.1612C4.17866 12.9689 3.77344 14.0083 3.77344 15.1423C3.77344 17.7147 5.85884 19.8001 8.43125 19.8001C11.0037 19.8001 13.0891 17.7147 13.0891 15.1423C13.089 14.0082 12.6838 12.969 12.0103 12.1612Z" fill="black"/>
</g>
</g>
<defs>
<clipPath id="clip0_1135_3059">
<rect width="16" height="16" fill="white" transform="translate(0 4)"/>
</clipPath>
<clipPath id="clip1_1135_3059">
<rect width="16" height="16" fill="white" transform="translate(0.200195 3.80005)"/>
</clipPath>
</defs>
</svg>
