<svg width="102" height="24" viewBox="0 0 102 24" fill="none" xmlns="http://www.w3.org/2000/svg">
<g clip-path="url(#clip0_1135_3039)">
<g clip-path="url(#clip1_1135_3039)">
<path d="M10.2911 12.5076C10.2911 12.7335 10.2552 12.951 10.1886 13.1548C9.85421 13.2187 9.53193 13.3398 9.23614 13.511C8.81614 13.756 8.45989 14.0998 8.20021 14.5095C7.76115 13.8103 7.02365 13.3065 6.21177 13.1548C5.76149 11.8316 6.80174 10.3983 8.20024 10.4179C9.35583 10.4179 10.2911 11.3545 10.2911 12.5076Z" fill="black"/>
<path d="M7.73135 16.1275C7.73135 17.2817 6.79507 18.2173 5.64029 18.2173C3.4952 18.1966 2.76879 15.39 4.59001 14.3203C4.59317 14.3187 4.59601 14.3168 4.59917 14.3149C5.20295 13.9494 6.07732 13.9493 6.68107 14.3149C7.30898 14.6757 7.73123 15.3523 7.73135 16.1275Z" fill="black"/>
<path d="M12.8514 16.1275C12.8514 17.2816 11.9151 18.2173 10.76 18.2173C8.60937 18.1958 7.88812 15.3787 9.71918 14.3149C10.3229 13.9493 11.1973 13.9494 11.8011 14.3149C11.8042 14.3168 11.8071 14.3187 11.8102 14.3203C12.433 14.6822 12.8514 15.356 12.8514 16.1275Z" fill="black"/>
<path d="M15.411 12.5076C15.411 13.6439 14.5032 14.5685 13.3732 14.5967C13.3729 14.596 13.3726 14.5957 13.3723 14.5951C13.1085 14.1463 12.7313 13.7714 12.2813 13.5098C12.2807 13.5095 12.2804 13.5092 12.2798 13.5089C12.276 13.5067 12.272 13.5045 12.2682 13.502C11.9773 13.3348 11.6601 13.2176 11.3313 13.1548C10.8817 11.833 11.9191 10.3988 13.3201 10.4179C14.4748 10.4179 15.411 11.3535 15.411 12.5076Z" fill="black"/>
<path d="M5.17145 12.5074C5.17145 12.7333 5.13551 12.9508 5.06895 13.1546C4.7402 13.2174 4.42301 13.3346 4.13207 13.5018C4.12832 13.5043 4.12426 13.5065 4.12051 13.5087C4.11988 13.509 4.11957 13.5093 4.11895 13.5096C3.66895 13.7712 3.29176 14.1462 3.02801 14.5949C3.0277 14.5955 3.02738 14.5958 3.02707 14.5965C1.89707 14.5683 0.989258 13.6437 0.989258 12.5074C0.989258 11.3533 1.92551 10.4177 3.0802 10.4177C4.2352 10.4177 5.17145 11.3533 5.17145 12.5074Z" fill="black"/>
<path d="M6.10889 18.9622V19.3312C6.10889 19.59 5.8992 19.8 5.64014 19.8C5.38139 19.8 5.17139 19.59 5.17139 19.3312V18.9622C5.47539 19.0103 5.80473 19.0103 6.10889 18.9622Z" fill="black"/>
<path d="M11.229 18.9622V19.3312C11.229 19.59 11.019 19.8 10.7603 19.8C10.5012 19.8 10.2915 19.59 10.2915 19.3312V18.9622C10.5957 19.0103 10.925 19.0103 11.229 18.9622Z" fill="black"/>
<path d="M5.81205 10.6482C5.7508 10.7263 5.6933 10.8079 5.64048 10.892C5.13923 10.101 4.28142 9.55728 3.29517 9.48822C2.65579 8.02947 2.95767 6.25353 2.97423 6.16072C3.00861 5.96697 3.16017 5.81509 3.35392 5.78103C3.40079 5.77259 4.1733 5.63978 5.10923 5.72322C4.21323 7.44294 4.68879 9.28994 5.81205 10.6482Z" fill="black"/>
<path d="M10.8268 7.63778C10.8268 8.53903 10.4106 9.35028 9.90185 10.0047C8.93688 9.31219 7.46363 9.31225 6.49872 10.0047C4.42413 7.40828 6.29013 5.11035 7.93157 3.88466C8.0931 3.77185 8.30747 3.77185 8.46907 3.88466C8.95688 4.20035 10.8773 5.87013 10.8268 7.63778Z" fill="black"/>
<path d="M13.1053 9.48822C12.119 9.55728 11.2612 10.101 10.7603 10.892C10.7071 10.8079 10.6496 10.7263 10.5884 10.6482C11.7122 9.28862 12.1872 7.44306 11.2909 5.72322C12.2268 5.63978 12.9996 5.77259 13.0465 5.78103C13.2403 5.81509 13.3918 5.96697 13.4262 6.16072C13.4428 6.25353 13.7446 8.02947 13.1053 9.48822Z" fill="black"/>
</g>
</g>
<path d="M28.298 17.084C27.57 17.084 26.87 16.9673 26.198 16.734C25.5353 16.5007 25.022 16.1927 24.658 15.81L25.064 15.012C25.4187 15.3667 25.89 15.656 26.478 15.88C27.066 16.0947 27.6727 16.202 28.298 16.202C29.1753 16.202 29.8333 16.0433 30.272 15.726C30.7107 15.3993 30.93 14.9793 30.93 14.466C30.93 14.074 30.8087 13.7613 30.566 13.528C30.3327 13.2947 30.0433 13.1173 29.698 12.996C29.3527 12.8653 28.872 12.7253 28.256 12.576C27.5187 12.3893 26.9307 12.212 26.492 12.044C26.0533 11.8667 25.6753 11.6007 25.358 11.246C25.05 10.8913 24.896 10.4107 24.896 9.804C24.896 9.30933 25.0267 8.86133 25.288 8.46C25.5493 8.04933 25.9507 7.72267 26.492 7.48C27.0333 7.23733 27.7053 7.116 28.508 7.116C29.068 7.116 29.614 7.19533 30.146 7.354C30.6873 7.50333 31.154 7.71333 31.546 7.984L31.196 8.81C30.7853 8.53933 30.3467 8.33867 29.88 8.208C29.4133 8.068 28.956 7.998 28.508 7.998C27.6493 7.998 27.0007 8.166 26.562 8.502C26.1327 8.82867 25.918 9.25333 25.918 9.776C25.918 10.168 26.0347 10.4853 26.268 10.728C26.5107 10.9613 26.8093 11.1433 27.164 11.274C27.528 11.3953 28.0133 11.5307 28.62 11.68C29.3387 11.8573 29.9173 12.0347 30.356 12.212C30.804 12.38 31.182 12.6413 31.49 12.996C31.798 13.3413 31.952 13.8127 31.952 14.41C31.952 14.9047 31.8167 15.3573 31.546 15.768C31.2847 16.1693 30.8787 16.4913 30.328 16.734C29.7773 16.9673 29.1007 17.084 28.298 17.084ZM37.8773 16.552C37.6906 16.72 37.4573 16.8507 37.1773 16.944C36.9066 17.028 36.6219 17.07 36.3233 17.07C35.6326 17.07 35.1006 16.8833 34.7273 16.51C34.3539 16.1367 34.1673 15.6093 34.1673 14.928V10.476H32.8513V9.636H34.1673V8.026H35.1613V9.636H37.4013V10.476H35.1613V14.872C35.1613 15.3107 35.2686 15.6467 35.4833 15.88C35.7073 16.104 36.0246 16.216 36.4353 16.216C36.6406 16.216 36.8366 16.1833 37.0233 16.118C37.2193 16.0527 37.3873 15.9593 37.5273 15.838L37.8773 16.552ZM40.6388 11.078C40.8721 10.5833 41.2174 10.21 41.6748 9.958C42.1414 9.706 42.7154 9.58 43.3968 9.58V10.546L43.1588 10.532C42.3841 10.532 41.7774 10.77 41.3388 11.246C40.9001 11.722 40.6808 12.3893 40.6808 13.248V17H39.6868V9.636H40.6388V11.078ZM47.7589 9.58C48.7202 9.58 49.4575 9.82267 49.9709 10.308C50.4842 10.784 50.7409 11.4933 50.7409 12.436V17H49.7889V15.852C49.5649 16.2347 49.2335 16.5333 48.7949 16.748C48.3655 16.9627 47.8522 17.07 47.2549 17.07C46.4335 17.07 45.7802 16.874 45.2949 16.482C44.8095 16.09 44.5669 15.572 44.5669 14.928C44.5669 14.3027 44.7909 13.7987 45.2389 13.416C45.6962 13.0333 46.4195 12.842 47.4089 12.842H49.7469V12.394C49.7469 11.7593 49.5695 11.2787 49.2149 10.952C48.8602 10.616 48.3422 10.448 47.6609 10.448C47.1942 10.448 46.7462 10.5273 46.3169 10.686C45.8875 10.8353 45.5189 11.0453 45.2109 11.316L44.7629 10.574C45.1362 10.2567 45.5842 10.014 46.1069 9.846C46.6295 9.66867 47.1802 9.58 47.7589 9.58ZM47.4089 16.286C47.9689 16.286 48.4495 16.16 48.8509 15.908C49.2522 15.6467 49.5509 15.2733 49.7469 14.788V13.584H47.4369C46.1769 13.584 45.5469 14.0227 45.5469 14.9C45.5469 15.3293 45.7102 15.67 46.0369 15.922C46.3635 16.1647 46.8209 16.286 47.4089 16.286ZM64.112 9.636L61.326 17H60.388L58.064 10.966L55.74 17H54.802L52.03 9.636H52.982L55.292 15.894L57.658 9.636H58.512L60.864 15.894L63.202 9.636H64.112ZM69.4027 9.58C70.0933 9.58 70.7187 9.73867 71.2787 10.056C71.8387 10.364 72.2773 10.8027 72.5947 11.372C72.912 11.9413 73.0707 12.59 73.0707 13.318C73.0707 14.046 72.912 14.6947 72.5947 15.264C72.2773 15.8333 71.8387 16.2767 71.2787 16.594C70.7187 16.9113 70.0933 17.07 69.4027 17.07C68.7867 17.07 68.2313 16.9393 67.7367 16.678C67.2513 16.4167 66.8593 16.0387 66.5607 15.544V17H65.6087V6.612H66.6027V11.036C66.9107 10.56 67.3027 10.2007 67.7787 9.958C68.264 9.706 68.8053 9.58 69.4027 9.58ZM69.3327 16.188C69.846 16.188 70.3127 16.0713 70.7327 15.838C71.1527 15.5953 71.4793 15.2547 71.7127 14.816C71.9553 14.3773 72.0767 13.878 72.0767 13.318C72.0767 12.758 71.9553 12.2587 71.7127 11.82C71.4793 11.3813 71.1527 11.0453 70.7327 10.812C70.3127 10.5693 69.846 10.448 69.3327 10.448C68.81 10.448 68.3387 10.5693 67.9187 10.812C67.508 11.0453 67.1813 11.3813 66.9387 11.82C66.7053 12.2587 66.5887 12.758 66.5887 13.318C66.5887 13.878 66.7053 14.3773 66.9387 14.816C67.1813 15.2547 67.508 15.5953 67.9187 15.838C68.3387 16.0713 68.81 16.188 69.3327 16.188ZM81.5089 13.626H75.3489C75.4049 14.3913 75.6989 15.012 76.2309 15.488C76.7629 15.9547 77.4349 16.188 78.2469 16.188C78.7043 16.188 79.1243 16.1087 79.5069 15.95C79.8896 15.782 80.2209 15.5393 80.5009 15.222L81.0609 15.866C80.7343 16.258 80.3236 16.5567 79.8289 16.762C79.3436 16.9673 78.8069 17.07 78.2189 17.07C77.4629 17.07 76.7909 16.9113 76.2029 16.594C75.6243 16.2673 75.1716 15.8193 74.8449 15.25C74.5183 14.6807 74.3549 14.0367 74.3549 13.318C74.3549 12.5993 74.5089 11.9553 74.8169 11.386C75.1343 10.8167 75.5636 10.3733 76.1049 10.056C76.6556 9.73867 77.2716 9.58 77.9529 9.58C78.6343 9.58 79.2456 9.73867 79.7869 10.056C80.3283 10.3733 80.7529 10.8167 81.0609 11.386C81.3689 11.946 81.5229 12.59 81.5229 13.318L81.5089 13.626ZM77.9529 10.434C77.2436 10.434 76.6463 10.6627 76.1609 11.12C75.6849 11.568 75.4143 12.156 75.3489 12.884H80.5709C80.5056 12.156 80.2303 11.568 79.7449 11.12C79.2689 10.6627 78.6716 10.434 77.9529 10.434ZM84.4982 11.078C84.7315 10.5833 85.0768 10.21 85.5342 9.958C86.0008 9.706 86.5748 9.58 87.2562 9.58V10.546L87.0182 10.532C86.2435 10.532 85.6368 10.77 85.1982 11.246C84.7595 11.722 84.5402 12.3893 84.5402 13.248V17H83.5462V9.636H84.4982V11.078ZM90.0079 11.078C90.2413 10.5833 90.5866 10.21 91.0439 9.958C91.5106 9.706 92.0846 9.58 92.7659 9.58V10.546L92.5279 10.532C91.7533 10.532 91.1466 10.77 90.7079 11.246C90.2693 11.722 90.0499 12.3893 90.0499 13.248V17H89.0559V9.636H90.0079V11.078ZM101.068 9.636L97.3861 17.882C97.0875 18.5727 96.7421 19.0627 96.3501 19.352C95.9581 19.6413 95.4868 19.786 94.9361 19.786C94.5815 19.786 94.2501 19.73 93.9421 19.618C93.6341 19.506 93.3681 19.338 93.1441 19.114L93.6061 18.372C93.9795 18.7453 94.4275 18.932 94.9501 18.932C95.2861 18.932 95.5708 18.8387 95.8041 18.652C96.0468 18.4653 96.2708 18.148 96.4761 17.7L96.7981 16.986L93.5081 9.636H94.5441L97.3161 15.894L100.088 9.636H101.068Z" fill="black"/>
<defs>
<clipPath id="clip0_1135_3039">
<rect width="16" height="16" fill="white" transform="translate(0 4)"/>
</clipPath>
<clipPath id="clip1_1135_3039">
<rect width="16" height="16" fill="white" transform="translate(0.200195 3.80005)"/>
</clipPath>
</defs>
</svg>
