<svg width="134" height="81" viewBox="0 0 134 81" fill="none" xmlns="http://www.w3.org/2000/svg">
<rect width="133" height="80" transform="translate(0.5 0.5)" fill="#FFFBF6"/>
<g clip-path="url(#clip0_1130_2875)">
<path d="M73.2273 29.7686C73.2273 30.3334 73.1374 30.8772 72.971 31.3866C72.1349 31.5463 71.3292 31.8492 70.5898 32.2772C69.5398 32.8897 68.6491 33.7491 67.9999 34.7733C66.9023 33.0254 65.0585 31.7658 63.0288 31.3866C61.9031 28.0786 64.5037 24.4955 68 24.5444C70.889 24.5444 73.2273 26.8858 73.2273 29.7686Z" fill="black"/>
<path d="M66.828 38.8184C66.828 41.7038 64.4873 44.0429 61.6004 44.0429C56.2376 43.9911 54.4216 36.9747 58.9747 34.3004C58.9826 34.2964 58.9897 34.2918 58.9976 34.287C60.507 33.3732 62.6929 33.3729 64.2023 34.287C65.7721 35.1889 66.8277 36.8804 66.828 38.8184Z" fill="black"/>
<path d="M79.6279 38.8183C79.6279 41.7037 77.2872 44.0429 74.3995 44.0429C69.0229 43.9892 67.2198 36.9464 71.7975 34.287C73.3068 33.3729 75.4928 33.3732 77.0022 34.287C77.0101 34.2918 77.0172 34.2964 77.0251 34.3004C78.5819 35.205 79.6279 36.8897 79.6279 38.8183Z" fill="black"/>
<path d="M86.0273 29.7686C86.0273 32.6093 83.7578 34.921 80.9328 34.9913C80.932 34.9897 80.9312 34.9889 80.9305 34.9874C80.2711 33.8655 79.3281 32.928 78.2031 32.2741C78.2015 32.2733 78.2008 32.2725 78.1992 32.2718C78.1898 32.2663 78.1797 32.2608 78.1703 32.2546C77.443 31.8366 76.65 31.5436 75.8281 31.3866C74.7039 28.0821 77.2975 24.4966 80.8 24.5444C83.6867 24.5444 86.0273 26.8835 86.0273 29.7686Z" fill="black"/>
<path d="M60.428 29.7687C60.428 30.3335 60.3382 30.8772 60.1718 31.3866C59.3499 31.5437 58.5569 31.8366 57.8296 32.2546C57.8202 32.2608 57.81 32.2663 57.8007 32.2718C57.7991 32.2726 57.7983 32.2733 57.7968 32.2741C56.6718 32.928 55.7288 33.8655 55.0694 34.9874C55.0686 34.989 55.0678 34.9897 55.0671 34.9913C52.2421 34.921 49.9725 32.6093 49.9725 29.7687C49.9725 26.8835 52.3132 24.5444 55.1999 24.5444C58.0874 24.5444 60.428 26.8835 60.428 29.7687Z" fill="black"/>
<path d="M62.7719 45.9054V46.8281C62.7719 47.4749 62.2476 47.9999 61.6 47.9999C60.9531 47.9999 60.4281 47.4749 60.4281 46.8281V45.9054C61.1881 46.0256 62.0115 46.0258 62.7719 45.9054Z" fill="black"/>
<path d="M75.5719 45.9054V46.8281C75.5719 47.4749 75.0469 47.9999 74.4 47.9999C73.7524 47.9999 73.2281 47.4749 73.2281 46.8281V45.9054C73.9885 46.0258 74.8119 46.0256 75.5719 45.9054Z" fill="black"/>
<path d="M62.0296 25.1202C61.8765 25.3155 61.7328 25.5194 61.6007 25.7296C60.3476 23.7522 58.2031 22.3928 55.7374 22.2202C54.139 18.5733 54.8937 14.1335 54.9351 13.9014C55.021 13.4171 55.3999 13.0374 55.8843 12.9522C56.0015 12.9311 57.9327 12.5991 60.2726 12.8077C58.0326 17.107 59.2215 21.7245 62.0296 25.1202Z" fill="black"/>
<path d="M74.5664 17.5943C74.5664 19.8475 73.5258 21.8756 72.2539 23.5115C69.8415 21.7804 66.1583 21.7805 63.7461 23.5115C58.5596 17.0206 63.2246 11.2757 67.3282 8.21152C67.732 7.92949 68.268 7.92949 68.6719 8.21152C69.8915 9.00074 74.6926 13.1752 74.5664 17.5943Z" fill="black"/>
<path d="M80.2625 22.2202C77.7969 22.3928 75.6524 23.7522 74.4 25.7296C74.2672 25.5194 74.1235 25.3155 73.9703 25.1202C76.7798 21.7212 77.9673 17.1073 75.7266 12.8077C78.0664 12.5991 79.9985 12.9311 80.1156 12.9522C80.6 13.0374 80.9789 13.4171 81.0649 13.9014C81.1063 14.1335 81.861 18.5733 80.2625 22.2202Z" fill="black"/>
</g>
<path d="M53.4648 60.1C54.2088 60.1 54.8528 60.224 55.3968 60.472C55.9488 60.72 56.3728 61.072 56.6688 61.528C56.9648 61.984 57.1128 62.524 57.1128 63.148C57.1128 63.764 56.9648 64.304 56.6688 64.768C56.3728 65.224 55.9488 65.576 55.3968 65.824C54.8528 66.064 54.2088 66.184 53.4648 66.184H51.7728V68.5H49.8288V60.1H53.4648ZM53.3568 64.6C53.9408 64.6 54.3848 64.476 54.6888 64.228C54.9928 63.972 55.1448 63.612 55.1448 63.148C55.1448 62.676 54.9928 62.316 54.6888 62.068C54.3848 61.812 53.9408 61.684 53.3568 61.684H51.7728V64.6H53.3568ZM66.2047 66.94V68.5H59.7007V60.1H66.0487V61.66H61.6327V63.484H65.5327V64.996H61.6327V66.94H66.2047ZM74.4835 66.7H70.5835L69.8395 68.5H67.8475L71.5915 60.1H73.5115L77.2675 68.5H75.2275L74.4835 66.7ZM73.8715 65.224L72.5395 62.008L71.2075 65.224H73.8715ZM84.691 68.5L83.071 66.16H82.975H81.283V68.5H79.339V60.1H82.975C83.719 60.1 84.363 60.224 84.907 60.472C85.459 60.72 85.883 61.072 86.179 61.528C86.475 61.984 86.623 62.524 86.623 63.148C86.623 63.772 86.471 64.312 86.167 64.768C85.871 65.216 85.447 65.56 84.895 65.8L86.779 68.5H84.691ZM84.655 63.148C84.655 62.676 84.503 62.316 84.199 62.068C83.895 61.812 83.451 61.684 82.867 61.684H81.283V64.612H82.867C83.451 64.612 83.895 64.484 84.199 64.228C84.503 63.972 84.655 63.612 84.655 63.148Z" fill="black"/>
<defs>
<clipPath id="clip0_1130_2875">
<rect width="40" height="40" fill="white" transform="translate(47.5 8.5)"/>
</clipPath>
</defs>
</svg>
