<svg width="134" height="81" viewBox="0 0 134 81" fill="none" xmlns="http://www.w3.org/2000/svg">
<rect width="133" height="80" transform="translate(0.5 0.5)" fill="#FFFBF6"/>
<g clip-path="url(#clip0_1130_2865)">
<g clip-path="url(#clip1_1130_2865)">
<path d="M67.9766 11.0206C67.6362 9.12513 64.9659 8.01857 62.0125 8.54904C59.7783 8.95029 57.1208 11.4548 55.9588 12.651C55.8152 12.7988 55.7517 13.0069 55.7882 13.2098C55.8247 13.4127 55.9566 13.5856 56.1427 13.6741C57.6483 14.3912 61.0113 15.8144 63.2454 15.4132C66.1987 14.8828 68.3171 12.9161 67.9766 11.0206Z" fill="black"/>
<path d="M77.5249 28.9031C75.7685 26.7967 74.8031 24.1406 74.8031 21.3981C74.8031 18.5924 72.947 16.221 70.396 15.4429C71.0125 14.3718 72.2799 12.5213 74.1451 11.5001C74.4718 11.3212 74.6186 10.9298 74.4891 10.5806L73.7133 8.49001C73.6349 8.27868 73.4658 8.11376 73.2525 8.04071C73.0393 7.96759 72.8046 7.99423 72.6129 8.11282C71.2854 8.93431 68.7367 11.0308 68.3297 15.1785C65.0063 15.3087 62.3516 18.0427 62.3516 21.3981C62.3516 24.1467 61.3902 26.792 59.6299 28.903C57.9459 30.9224 56.9329 33.5206 56.9329 36.3556C56.9329 42.7868 62.1464 48.0002 68.5774 48.0002C75.0084 48.0002 80.2219 42.7868 80.2219 36.3556C80.2218 33.5206 79.2087 30.9224 77.5249 28.9031Z" fill="black"/>
</g>
</g>
<path d="M47.5894 60.1C48.3334 60.1 48.9774 60.224 49.5214 60.472C50.0734 60.72 50.4974 61.072 50.7934 61.528C51.0894 61.984 51.2374 62.524 51.2374 63.148C51.2374 63.764 51.0894 64.304 50.7934 64.768C50.4974 65.224 50.0734 65.576 49.5214 65.824C48.9774 66.064 48.3334 66.184 47.5894 66.184H45.8974V68.5H43.9534V60.1H47.5894ZM47.4814 64.6C48.0654 64.6 48.5094 64.476 48.8134 64.228C49.1174 63.972 49.2694 63.612 49.2694 63.148C49.2694 62.676 49.1174 62.316 48.8134 62.068C48.5094 61.812 48.0654 61.684 47.4814 61.684H45.8974V64.6H47.4814ZM60.3293 66.94V68.5H53.8253V60.1H60.1733V61.66H55.7573V63.484H59.6573V64.996H55.7573V66.94H60.3293ZM68.6081 66.7H64.7081L63.9641 68.5H61.9721L65.7161 60.1H67.6361L71.3921 68.5H69.3521L68.6081 66.7ZM67.9961 65.224L66.6641 62.008L65.3321 65.224H67.9961ZM77.3664 68.644C76.5104 68.644 75.7344 68.46 75.0384 68.092C74.3504 67.716 73.8064 67.2 73.4064 66.544C73.0144 65.88 72.8184 65.132 72.8184 64.3C72.8184 63.468 73.0144 62.724 73.4064 62.068C73.8064 61.404 74.3504 60.888 75.0384 60.52C75.7344 60.144 76.5144 59.956 77.3784 59.956C78.1064 59.956 78.7624 60.084 79.3464 60.34C79.9384 60.596 80.4344 60.964 80.8344 61.444L79.5864 62.596C79.0184 61.94 78.3144 61.612 77.4744 61.612C76.9544 61.612 76.4904 61.728 76.0824 61.96C75.6744 62.184 75.3544 62.5 75.1224 62.908C74.8984 63.316 74.7864 63.78 74.7864 64.3C74.7864 64.82 74.8984 65.284 75.1224 65.692C75.3544 66.1 75.6744 66.42 76.0824 66.652C76.4904 66.876 76.9544 66.988 77.4744 66.988C78.3144 66.988 79.0184 66.656 79.5864 65.992L80.8344 67.144C80.4344 67.632 79.9384 68.004 79.3464 68.26C78.7544 68.516 78.0944 68.644 77.3664 68.644ZM91.0512 60.1V68.5H89.1072V65.056H85.2912V68.5H83.3472V60.1H85.2912V63.412H89.1072V60.1H91.0512Z" fill="black"/>
<defs>
<clipPath id="clip0_1130_2865">
<rect width="40" height="40" fill="white" transform="translate(47.5 8.5)"/>
</clipPath>
<clipPath id="clip1_1130_2865">
<rect width="40" height="40" fill="white" transform="translate(48 8)"/>
</clipPath>
</defs>
</svg>
