<svg width="134" height="81" viewBox="0 0 134 81" fill="none" xmlns="http://www.w3.org/2000/svg">
<rect width="133" height="80" transform="translate(0.5 0.5)" fill="#FFFBF6"/>
<g clip-path="url(#clip0_1130_2860)">
<path d="M87.4818 27.8881L81.8062 25.9018C79.5412 25.1086 77.0514 25.2676 74.9058 26.3419C72.7599 27.4162 71.1406 29.3137 70.4178 31.6019L68.9326 36.3048L67.4704 37.4012V27.5801C67.469 26.271 68.1241 25.048 69.2139 24.3236L69.2065 24.3126C69.2457 24.2917 69.2829 24.2664 69.3171 24.2381C72.058 21.497 73.49 17.7106 73.2492 13.8418L72.9289 8.70369C72.9087 8.38035 72.6641 8.11592 72.3433 8.07019C72.0236 8.02789 71.717 8.21337 71.6059 8.5165L69.3993 14.6924C68.5744 16.9997 68.1525 19.4313 68.1529 21.8817V23.419C66.8631 24.4138 66.107 25.9513 66.1059 27.5806V28.9324L65.4123 28.2381C65.2955 23.1653 62.0062 18.7109 57.1907 17.1084L52.6763 15.6078C52.4429 15.5296 52.1858 15.5835 52.0031 15.7477C51.8205 15.913 51.7404 16.1632 51.7942 16.4035L52.5448 19.7885C53.7467 25.3119 58.6486 29.2424 64.3017 29.2142H64.4593L66.1059 30.8612V45.8491L64.7415 45.1666V43.7633C64.7415 40.3313 63.0914 37.108 60.307 35.1017C57.5221 33.095 53.9428 32.5488 50.6868 33.6345L47.4689 34.7071C47.1891 34.7992 47 35.0606 47 35.3553C47 35.6499 47.1891 35.9112 47.4689 36.0035L48.2 36.2472C51.7017 37.4115 54.9699 39.1885 57.8505 41.4953L63.6324 46.1206C63.672 46.148 63.7139 46.1709 63.7583 46.1891L63.7542 46.1983L66.1059 47.3754V49H67.4704V39.107L69.9268 37.2645L69.9195 37.2551C69.9474 37.239 69.9741 37.2207 69.9996 37.2013C74.3208 32.8951 79.9474 30.1433 85.999 29.3763L87.3415 29.2088C87.6558 29.1689 87.9014 28.9184 87.935 28.6039C87.9684 28.289 87.7808 27.9925 87.4818 27.8881Z" fill="black"/>
</g>
<path d="M35.2684 66.94V68.5H28.7644V60.1H35.1124V61.66H30.6964V63.484H34.5964V64.996H30.6964V66.94H35.2684ZM43.5471 66.7H39.6471L38.9031 68.5H36.9111L40.6551 60.1H42.5751L46.3311 68.5H44.2911L43.5471 66.7ZM42.9351 65.224L41.6031 62.008L40.2711 65.224H42.9351ZM53.7546 68.5L52.1346 66.16H52.0386H50.3466V68.5H48.4026V60.1H52.0386C52.7826 60.1 53.4266 60.224 53.9706 60.472C54.5226 60.72 54.9466 61.072 55.2426 61.528C55.5386 61.984 55.6866 62.524 55.6866 63.148C55.6866 63.772 55.5346 64.312 55.2306 64.768C54.9346 65.216 54.5106 65.56 53.9586 65.8L55.8426 68.5H53.7546ZM53.7186 63.148C53.7186 62.676 53.5666 62.316 53.2626 62.068C52.9586 61.812 52.5146 61.684 51.9306 61.684H50.3466V64.612H51.9306C52.5146 64.612 52.9586 64.484 53.2626 64.228C53.5666 63.972 53.7186 63.612 53.7186 63.148ZM58.4269 60.1H60.3709V66.916H64.5829V68.5H58.4269V60.1ZM77.1435 64.168H78.9195V67.576C78.4635 67.92 77.9355 68.184 77.3355 68.368C76.7355 68.552 76.1315 68.644 75.5235 68.644C74.6515 68.644 73.8675 68.46 73.1715 68.092C72.4755 67.716 71.9275 67.2 71.5275 66.544C71.1355 65.88 70.9395 65.132 70.9395 64.3C70.9395 63.468 71.1355 62.724 71.5275 62.068C71.9275 61.404 72.4795 60.888 73.1835 60.52C73.8875 60.144 74.6795 59.956 75.5595 59.956C76.2955 59.956 76.9635 60.08 77.5635 60.328C78.1635 60.576 78.6675 60.936 79.0755 61.408L77.8275 62.56C77.2275 61.928 76.5035 61.612 75.6555 61.612C75.1195 61.612 74.6435 61.724 74.2275 61.948C73.8115 62.172 73.4875 62.488 73.2555 62.896C73.0235 63.304 72.9075 63.772 72.9075 64.3C72.9075 64.82 73.0235 65.284 73.2555 65.692C73.4875 66.1 73.8075 66.42 74.2155 66.652C74.6315 66.876 75.1035 66.988 75.6315 66.988C76.1915 66.988 76.6955 66.868 77.1435 66.628V64.168ZM87.2773 68.5L85.6573 66.16H85.5613H83.8693V68.5H81.9253V60.1H85.5613C86.3053 60.1 86.9493 60.224 87.4933 60.472C88.0453 60.72 88.4693 61.072 88.7653 61.528C89.0613 61.984 89.2093 62.524 89.2093 63.148C89.2093 63.772 89.0573 64.312 88.7533 64.768C88.4573 65.216 88.0333 65.56 87.4813 65.8L89.3653 68.5H87.2773ZM87.2413 63.148C87.2413 62.676 87.0893 62.316 86.7853 62.068C86.4813 61.812 86.0373 61.684 85.4533 61.684H83.8693V64.612H85.4533C86.0373 64.612 86.4813 64.484 86.7853 64.228C87.0893 63.972 87.2413 63.612 87.2413 63.148ZM98.4535 66.94V68.5H91.9495V60.1H98.2975V61.66H93.8815V63.484H97.7815V64.996H93.8815V66.94H98.4535ZM105.15 65.524V68.5H103.206V65.5L99.9543 60.1H102.018L104.262 63.832L106.506 60.1H108.414L105.15 65.524Z" fill="black"/>
<defs>
<clipPath id="clip0_1130_2860">
<rect width="40" height="40" fill="white" transform="translate(47.5 8.5)"/>
</clipPath>
</defs>
</svg>
