<svg width="91" height="15" viewBox="0 0 91 15" fill="none" xmlns="http://www.w3.org/2000/svg">
<path d="M7.5 1.61803L8.70833 5.33688L8.82058 5.68237H9.18386H13.0941L9.93064 7.98075L9.63675 8.19427L9.74901 8.53976L10.9573 12.2586L7.79389 9.96024L7.5 9.74671L7.20611 9.96024L4.04267 12.2586L5.25099 8.53976L5.36325 8.19427L5.06936 7.98075L1.90592 5.68237H5.81614H6.17942L6.29167 5.33688L7.5 1.61803Z" stroke="black"/>
<path d="M26.5 1.61803L27.7083 5.33688L27.8206 5.68237H28.1839H32.0941L28.9306 7.98075L28.6367 8.19427L28.749 8.53976L29.9573 12.2586L26.7939 9.96024L26.5 9.74671L26.2061 9.96024L23.0427 12.2586L24.251 8.53976L24.3633 8.19427L24.0694 7.98075L20.9059 5.68237H24.8161H25.1794L25.2917 5.33688L26.5 1.61803Z" stroke="black"/>
<path d="M45.5 1.61803L46.7083 5.33688L46.8206 5.68237H47.1839H51.0941L47.9306 7.98075L47.6367 8.19427L47.749 8.53976L48.9573 12.2586L45.7939 9.96024L45.5 9.74671L45.2061 9.96024L42.0427 12.2586L43.251 8.53976L43.3633 8.19427L43.0694 7.98075L39.9059 5.68237H43.8161H44.1794L44.2917 5.33688L45.5 1.61803Z" stroke="black"/>
<path d="M64.5 1.61803L65.7083 5.33688L65.8206 5.68237H66.1839H70.0941L66.9306 7.98075L66.6367 8.19427L66.749 8.53976L67.9573 12.2586L64.7939 9.96024L64.5 9.74671L64.2061 9.96024L61.0427 12.2586L62.251 8.53976L62.3633 8.19427L62.0694 7.98075L58.9059 5.68237H62.8161H63.1794L63.2917 5.33688L64.5 1.61803Z" stroke="black"/>
<path d="M83.5 1.61803L84.7083 5.33688L84.8206 5.68237H85.1839H89.0941L85.9306 7.98075L85.6367 8.19427L85.749 8.53976L86.9573 12.2586L83.7939 9.96024L83.5 9.74671L83.2061 9.96024L80.0427 12.2586L81.251 8.53976L81.3633 8.19427L81.0694 7.98075L77.9059 5.68237H81.8161H82.1794L82.2917 5.33688L83.5 1.61803Z" stroke="black"/>
</svg>
