<svg width="176" height="24" viewBox="0 0 176 24" fill="none" xmlns="http://www.w3.org/2000/svg">
<path d="M7.5 4L9.18386 9.18237H14.6329L10.2245 12.3853L11.9084 17.5676L7.5 14.3647L3.09161 17.5676L4.77547 12.3853L0.367076 9.18237H5.81614L7.5 4Z" fill="black"/>
<path d="M26.5 4L28.1839 9.18237H33.6329L29.2245 12.3853L30.9084 17.5676L26.5 14.3647L22.0916 17.5676L23.7755 12.3853L19.3671 9.18237H24.8161L26.5 4Z" fill="black"/>
<path d="M45.5 4L47.1839 9.18237H52.6329L48.2245 12.3853L49.9084 17.5676L45.5 14.3647L41.0916 17.5676L42.7755 12.3853L38.3671 9.18237H43.8161L45.5 4Z" fill="black"/>
<path d="M64.5 4L66.1839 9.18237H71.6329L67.2245 12.3853L68.9084 17.5676L64.5 14.3647L60.0916 17.5676L61.7755 12.3853L57.3671 9.18237H62.8161L64.5 4Z" fill="black"/>
<path d="M83.5 4L85.1839 9.18237H90.6329L86.2245 12.3853L87.9084 17.5676L83.5 14.3647L79.0916 17.5676L80.7755 12.3853L76.3671 9.18237H81.8161L83.5 4Z" fill="black"/>
<path d="M100.897 7.2V17H99.8891V8.096H97.5791V7.2H100.897ZM109.932 16.104V17H103.058V16.286L107.132 12.296C107.645 11.792 107.99 11.358 108.168 10.994C108.354 10.6207 108.448 10.2473 108.448 9.874C108.448 9.29533 108.247 8.84733 107.846 8.53C107.454 8.20333 106.889 8.04 106.152 8.04C105.004 8.04 104.112 8.404 103.478 9.132L102.764 8.516C103.146 8.068 103.632 7.72267 104.22 7.48C104.817 7.23733 105.489 7.116 106.236 7.116C107.234 7.116 108.023 7.354 108.602 7.83C109.19 8.29667 109.484 8.94067 109.484 9.762C109.484 10.266 109.372 10.7513 109.148 11.218C108.924 11.6847 108.499 12.2213 107.874 12.828L104.542 16.104H109.932ZM119.199 14.424H117.239V17H116.231V14.424H110.701V13.696L115.895 7.2H117.015L112.003 13.528H116.259V11.26H117.239V13.528H119.199V14.424ZM125.399 11.078C125.632 10.5833 125.977 10.21 126.435 9.958C126.901 9.706 127.475 9.58 128.157 9.58V10.546L127.919 10.532C127.144 10.532 126.537 10.77 126.099 11.246C125.66 11.722 125.441 12.3893 125.441 13.248V17H124.447V9.636H125.399V11.078ZM136.3 13.626H130.14C130.196 14.3913 130.49 15.012 131.022 15.488C131.554 15.9547 132.226 16.188 133.038 16.188C133.495 16.188 133.915 16.1087 134.298 15.95C134.681 15.782 135.012 15.5393 135.292 15.222L135.852 15.866C135.525 16.258 135.115 16.5567 134.62 16.762C134.135 16.9673 133.598 17.07 133.01 17.07C132.254 17.07 131.582 16.9113 130.994 16.594C130.415 16.2673 129.963 15.8193 129.636 15.25C129.309 14.6807 129.146 14.0367 129.146 13.318C129.146 12.5993 129.3 11.9553 129.608 11.386C129.925 10.8167 130.355 10.3733 130.896 10.056C131.447 9.73867 132.063 9.58 132.744 9.58C133.425 9.58 134.037 9.73867 134.578 10.056C135.119 10.3733 135.544 10.8167 135.852 11.386C136.16 11.946 136.314 12.59 136.314 13.318L136.3 13.626ZM132.744 10.434C132.035 10.434 131.437 10.6627 130.952 11.12C130.476 11.568 130.205 12.156 130.14 12.884H135.362C135.297 12.156 135.021 11.568 134.536 11.12C134.06 10.6627 133.463 10.434 132.744 10.434ZM144.388 9.636L141.112 17H140.09L136.828 9.636H137.864L140.622 15.908L143.408 9.636H144.388ZM145.788 9.636H146.782V17H145.788V9.636ZM146.292 8.026C146.087 8.026 145.914 7.956 145.774 7.816C145.634 7.676 145.564 7.508 145.564 7.312C145.564 7.12533 145.634 6.962 145.774 6.822C145.914 6.682 146.087 6.612 146.292 6.612C146.498 6.612 146.67 6.682 146.81 6.822C146.95 6.95267 147.02 7.11133 147.02 7.298C147.02 7.50333 146.95 7.676 146.81 7.816C146.67 7.956 146.498 8.026 146.292 8.026ZM155.96 13.626H149.8C149.856 14.3913 150.15 15.012 150.682 15.488C151.214 15.9547 151.886 16.188 152.698 16.188C153.155 16.188 153.575 16.1087 153.958 15.95C154.341 15.782 154.672 15.5393 154.952 15.222L155.512 15.866C155.185 16.258 154.775 16.5567 154.28 16.762C153.795 16.9673 153.258 17.07 152.67 17.07C151.914 17.07 151.242 16.9113 150.654 16.594C150.075 16.2673 149.623 15.8193 149.296 15.25C148.969 14.6807 148.806 14.0367 148.806 13.318C148.806 12.5993 148.96 11.9553 149.268 11.386C149.585 10.8167 150.015 10.3733 150.556 10.056C151.107 9.73867 151.723 9.58 152.404 9.58C153.085 9.58 153.697 9.73867 154.238 10.056C154.779 10.3733 155.204 10.8167 155.512 11.386C155.82 11.946 155.974 12.59 155.974 13.318L155.96 13.626ZM152.404 10.434C151.695 10.434 151.097 10.6627 150.612 11.12C150.136 11.568 149.865 12.156 149.8 12.884H155.022C154.957 12.156 154.681 11.568 154.196 11.12C153.72 10.6627 153.123 10.434 152.404 10.434ZM168.669 9.636L165.883 17H164.945L162.621 10.966L160.297 17H159.359L156.587 9.636H157.539L159.849 15.894L162.215 9.636H163.069L165.421 15.894L167.759 9.636H168.669ZM172.057 17.07C171.46 17.07 170.886 16.986 170.335 16.818C169.794 16.6407 169.369 16.4213 169.061 16.16L169.509 15.376C169.817 15.6187 170.205 15.8193 170.671 15.978C171.138 16.1273 171.623 16.202 172.127 16.202C172.799 16.202 173.294 16.0993 173.611 15.894C173.938 15.6793 174.101 15.3807 174.101 14.998C174.101 14.7273 174.013 14.5173 173.835 14.368C173.658 14.2093 173.434 14.0927 173.163 14.018C172.893 13.934 172.533 13.8547 172.085 13.78C171.488 13.668 171.007 13.556 170.643 13.444C170.279 13.3227 169.967 13.122 169.705 12.842C169.453 12.562 169.327 12.1747 169.327 11.68C169.327 11.064 169.584 10.56 170.097 10.168C170.611 9.776 171.325 9.58 172.239 9.58C172.715 9.58 173.191 9.64533 173.667 9.776C174.143 9.89733 174.535 10.0607 174.843 10.266L174.409 11.064C173.803 10.644 173.079 10.434 172.239 10.434C171.605 10.434 171.124 10.546 170.797 10.77C170.48 10.994 170.321 11.288 170.321 11.652C170.321 11.932 170.41 12.156 170.587 12.324C170.774 12.492 171.003 12.618 171.273 12.702C171.544 12.7767 171.917 12.856 172.393 12.94C172.981 13.052 173.453 13.164 173.807 13.276C174.162 13.388 174.465 13.5793 174.717 13.85C174.969 14.1207 175.095 14.494 175.095 14.97C175.095 15.614 174.825 16.1273 174.283 16.51C173.751 16.8833 173.009 17.07 172.057 17.07Z" fill="black"/>
</svg>
