<svg width="163" height="15" viewBox="0 0 163 15" fill="none" xmlns="http://www.w3.org/2000/svg">
<path d="M95.8588 14.328C95.4108 13.592 95.0668 12.748 94.8268 11.796C94.5868 10.836 94.4668 9.808 94.4668 8.712C94.4668 7.616 94.5868 6.588 94.8268 5.628C95.0668 4.66 95.4108 3.816 95.8588 3.096H96.6748C96.2028 3.904 95.8548 4.772 95.6308 5.7C95.4148 6.628 95.3068 7.632 95.3068 8.712C95.3068 9.792 95.4148 10.796 95.6308 11.724C95.8548 12.652 96.2028 13.52 96.6748 14.328H95.8588ZM100.648 7.2C101.528 7.248 102.196 7.488 102.652 7.92C103.116 8.344 103.348 8.9 103.348 9.588C103.348 10.068 103.232 10.496 103 10.872C102.768 11.24 102.424 11.532 101.968 11.748C101.512 11.964 100.956 12.072 100.3 12.072C99.692 12.072 99.116 11.976 98.572 11.784C98.036 11.584 97.604 11.32 97.276 10.992L97.696 10.308C97.976 10.596 98.348 10.832 98.812 11.016C99.276 11.192 99.772 11.28 100.3 11.28C100.988 11.28 101.52 11.132 101.896 10.836C102.272 10.532 102.46 10.116 102.46 9.588C102.46 9.068 102.272 8.66 101.896 8.364C101.52 8.068 100.952 7.92 100.192 7.92H99.592V7.284L101.92 4.368H97.624V3.6H103.024V4.212L100.648 7.2ZM110.243 11.232V12H104.351V11.388L107.843 7.968C108.283 7.536 108.579 7.164 108.731 6.852C108.891 6.532 108.971 6.212 108.971 5.892C108.971 5.396 108.799 5.012 108.455 4.74C108.119 4.46 107.635 4.32 107.003 4.32C106.019 4.32 105.255 4.632 104.711 5.256L104.099 4.728C104.427 4.344 104.843 4.048 105.347 3.84C105.859 3.632 106.435 3.528 107.075 3.528C107.931 3.528 108.607 3.732 109.103 4.14C109.607 4.54 109.859 5.092 109.859 5.796C109.859 6.228 109.763 6.644 109.571 7.044C109.379 7.444 109.015 7.904 108.479 8.424L105.623 11.232H110.243ZM115.848 6.924C116.048 6.5 116.344 6.18 116.736 5.964C117.136 5.748 117.628 5.64 118.212 5.64V6.468L118.008 6.456C117.344 6.456 116.824 6.66 116.448 7.068C116.072 7.476 115.884 8.048 115.884 8.784V12H115.032V5.688H115.848V6.924ZM125.192 9.108H119.912C119.96 9.764 120.212 10.296 120.668 10.704C121.124 11.104 121.7 11.304 122.396 11.304C122.788 11.304 123.148 11.236 123.476 11.1C123.804 10.956 124.088 10.748 124.328 10.476L124.808 11.028C124.528 11.364 124.176 11.62 123.752 11.796C123.336 11.972 122.876 12.06 122.372 12.06C121.724 12.06 121.148 11.924 120.644 11.652C120.148 11.372 119.76 10.988 119.48 10.5C119.2 10.012 119.06 9.46 119.06 8.844C119.06 8.228 119.192 7.676 119.456 7.188C119.728 6.7 120.096 6.32 120.56 6.048C121.032 5.776 121.56 5.64 122.144 5.64C122.728 5.64 123.252 5.776 123.716 6.048C124.18 6.32 124.544 6.7 124.808 7.188C125.072 7.668 125.204 8.22 125.204 8.844L125.192 9.108ZM122.144 6.372C121.536 6.372 121.024 6.568 120.608 6.96C120.2 7.344 119.968 7.848 119.912 8.472H124.388C124.332 7.848 124.096 7.344 123.68 6.96C123.272 6.568 122.76 6.372 122.144 6.372ZM132.125 5.688L129.317 12H128.441L125.645 5.688H126.533L128.897 11.064L131.285 5.688H132.125ZM133.325 5.688H134.177V12H133.325V5.688ZM133.757 4.308C133.581 4.308 133.433 4.248 133.313 4.128C133.193 4.008 133.133 3.864 133.133 3.696C133.133 3.536 133.193 3.396 133.313 3.276C133.433 3.156 133.581 3.096 133.757 3.096C133.933 3.096 134.081 3.156 134.201 3.276C134.321 3.388 134.381 3.524 134.381 3.684C134.381 3.86 134.321 4.008 134.201 4.128C134.081 4.248 133.933 4.308 133.757 4.308ZM142.043 9.108H136.763C136.811 9.764 137.063 10.296 137.519 10.704C137.975 11.104 138.551 11.304 139.247 11.304C139.639 11.304 139.999 11.236 140.327 11.1C140.655 10.956 140.939 10.748 141.179 10.476L141.659 11.028C141.379 11.364 141.027 11.62 140.603 11.796C140.187 11.972 139.727 12.06 139.223 12.06C138.575 12.06 137.999 11.924 137.495 11.652C136.999 11.372 136.611 10.988 136.331 10.5C136.051 10.012 135.911 9.46 135.911 8.844C135.911 8.228 136.043 7.676 136.307 7.188C136.579 6.7 136.947 6.32 137.411 6.048C137.883 5.776 138.411 5.64 138.995 5.64C139.579 5.64 140.103 5.776 140.567 6.048C141.031 6.32 141.395 6.7 141.659 7.188C141.923 7.668 142.055 8.22 142.055 8.844L142.043 9.108ZM138.995 6.372C138.387 6.372 137.875 6.568 137.459 6.96C137.051 7.344 136.819 7.848 136.763 8.472H141.239C141.183 7.848 140.947 7.344 140.531 6.96C140.123 6.568 139.611 6.372 138.995 6.372ZM152.936 5.688L150.548 12H149.744L147.752 6.828L145.76 12H144.956L142.58 5.688H143.396L145.376 11.052L147.404 5.688H148.136L150.152 11.052L152.156 5.688H152.936ZM155.841 12.06C155.329 12.06 154.837 11.988 154.365 11.844C153.901 11.692 153.537 11.504 153.273 11.28L153.657 10.608C153.921 10.816 154.253 10.988 154.653 11.124C155.053 11.252 155.469 11.316 155.901 11.316C156.477 11.316 156.901 11.228 157.173 11.052C157.453 10.868 157.593 10.612 157.593 10.284C157.593 10.052 157.517 9.872 157.365 9.744C157.213 9.608 157.021 9.508 156.789 9.444C156.557 9.372 156.249 9.304 155.865 9.24C155.353 9.144 154.941 9.048 154.629 8.952C154.317 8.848 154.049 8.676 153.825 8.436C153.609 8.196 153.501 7.864 153.501 7.44C153.501 6.912 153.721 6.48 154.161 6.144C154.601 5.808 155.213 5.64 155.997 5.64C156.405 5.64 156.813 5.696 157.221 5.808C157.629 5.912 157.965 6.052 158.229 6.228L157.857 6.912C157.337 6.552 156.717 6.372 155.997 6.372C155.453 6.372 155.041 6.468 154.761 6.66C154.489 6.852 154.353 7.104 154.353 7.416C154.353 7.656 154.429 7.848 154.581 7.992C154.741 8.136 154.937 8.244 155.169 8.316C155.401 8.38 155.721 8.448 156.129 8.52C156.633 8.616 157.037 8.712 157.341 8.808C157.645 8.904 157.905 9.068 158.121 9.3C158.337 9.532 158.445 9.852 158.445 10.26C158.445 10.812 158.213 11.252 157.749 11.58C157.293 11.9 156.657 12.06 155.841 12.06ZM159.312 14.328C159.784 13.52 160.132 12.656 160.356 11.736C160.58 10.808 160.692 9.8 160.692 8.712C160.692 7.624 160.58 6.62 160.356 5.7C160.132 4.772 159.784 3.904 159.312 3.096H160.128C160.576 3.816 160.92 4.66 161.16 5.628C161.408 6.588 161.532 7.616 161.532 8.712C161.532 9.808 161.412 10.836 161.172 11.796C160.932 12.756 160.584 13.6 160.128 14.328H159.312Z" fill="black"/>
<path d="M7.5 0L9.18386 5.18237H14.6329L10.2245 8.38525L11.9084 13.5676L7.5 10.3647L3.09161 13.5676L4.77547 8.38525L0.367076 5.18237H5.81614L7.5 0Z" fill="black"/>
<path d="M26.5 0L28.1839 5.18237H33.6329L29.2245 8.38525L30.9084 13.5676L26.5 10.3647L22.0916 13.5676L23.7755 8.38525L19.3671 5.18237H24.8161L26.5 0Z" fill="black"/>
<path d="M45.5 0L47.1839 5.18237H52.6329L48.2245 8.38525L49.9084 13.5676L45.5 10.3647L41.0916 13.5676L42.7755 8.38525L38.3671 5.18237H43.8161L45.5 0Z" fill="black"/>
<path d="M64.5 0L66.1839 5.18237H71.6329L67.2245 8.38525L68.9084 13.5676L64.5 10.3647L60.0916 13.5676L61.7755 8.38525L57.3671 5.18237H62.8161L64.5 0Z" fill="black"/>
<path d="M83.5 0L85.1839 5.18237H90.6329L86.2245 8.38525L87.9084 13.5676L83.5 10.3647L79.0916 13.5676L80.7755 8.38525L76.3671 5.18237H81.8161L83.5 0Z" fill="black"/>
</svg>
