<svg width="119" height="24" viewBox="0 0 119 24" fill="none" xmlns="http://www.w3.org/2000/svg">
<path d="M10.8653 24C8.82031 24 6.96642 23.5394 5.30365 22.6183C3.66 21.6771 2.36036 20.3855 1.40475 18.7434C0.46825 17.0814 0 15.209 0 13.1264C0 11.0438 0.46825 9.18148 1.40475 7.53942C2.36036 5.87735 3.66 4.58573 5.30365 3.66458C6.96642 2.72341 8.82986 2.25282 10.894 2.25282C12.6332 2.25282 14.2004 2.57322 15.5956 3.21402C17.0099 3.85482 18.1949 4.77597 19.1505 5.97747L16.169 8.86108C14.812 7.21903 13.1301 6.398 11.1233 6.398C9.88104 6.398 8.77253 6.68836 7.7978 7.26909C6.82308 7.82979 6.05859 8.62078 5.50433 9.64205C4.96919 10.6633 4.70162 11.8248 4.70162 13.1264C4.70162 14.428 4.96919 15.5895 5.50433 16.6108C6.05859 17.632 6.82308 18.433 7.7978 19.0138C8.77253 19.5745 9.88104 19.8548 11.1233 19.8548C13.1301 19.8548 14.812 19.0238 16.169 17.3617L19.1505 20.2453C18.1949 21.4668 17.0099 22.398 15.5956 23.0388C14.1813 23.6796 12.6045 24 10.8653 24Z" fill="black"/>
<path d="M28.5546 23.8799C26.9301 23.8799 25.468 23.5294 24.1683 22.8285C22.8878 22.1076 21.8844 21.1164 21.1582 19.8548C20.4319 18.5932 20.0688 17.1615 20.0688 15.5594C20.0688 13.9574 20.4319 12.5257 21.1582 11.2641C21.8844 10.0025 22.8878 9.02128 24.1683 8.3204C25.468 7.5995 26.9301 7.23905 28.5546 7.23905C30.1791 7.23905 31.6317 7.5995 32.9122 8.3204C34.1927 9.02128 35.1961 10.0025 35.9224 11.2641C36.6486 12.5257 37.0118 13.9574 37.0118 15.5594C37.0118 17.1615 36.6486 18.5932 35.9224 19.8548C35.1961 21.1164 34.1927 22.1076 32.9122 22.8285C31.6317 23.5294 30.1791 23.8799 28.5546 23.8799ZM28.5546 20.035C29.7013 20.035 30.6378 19.6345 31.3641 18.8335C32.1095 18.0125 32.4822 16.9212 32.4822 15.5594C32.4822 14.1977 32.1095 13.1164 31.3641 12.3154C30.6378 11.4944 29.7013 11.0839 28.5546 11.0839C27.4079 11.0839 26.4618 11.4944 25.7164 12.3154C24.9711 13.1164 24.5984 14.1977 24.5984 15.5594C24.5984 16.9212 24.9711 18.0125 25.7164 18.8335C26.4618 19.6345 27.4079 20.035 28.5546 20.035Z" fill="black"/>
<path d="M47.4549 23.8799C45.8113 23.8799 44.3301 23.5294 43.0113 22.8285C41.7117 22.1076 40.6892 21.1164 39.9438 19.8548C39.2175 18.5932 38.8544 17.1615 38.8544 15.5594C38.8544 13.9574 39.2175 12.5257 39.9438 11.2641C40.6892 10.0025 41.7117 9.02128 43.0113 8.3204C44.3301 7.5995 45.8113 7.23905 47.4549 7.23905C49.0795 7.23905 50.4938 7.5995 51.6978 8.3204C52.921 9.02128 53.8097 10.0325 54.364 11.3542L50.8951 13.3066C50.0924 11.8248 48.9361 11.0839 47.4262 11.0839C46.2604 11.0839 45.2952 11.4844 44.5307 12.2854C43.7662 13.0864 43.384 14.1777 43.384 15.5594C43.384 16.9412 43.7662 18.0325 44.5307 18.8335C45.2952 19.6345 46.2604 20.035 47.4262 20.035C48.9552 20.035 50.1115 19.2941 50.8951 17.8123L54.364 19.7947C53.8097 21.0763 52.921 22.0776 51.6978 22.7985C50.4938 23.5194 49.0795 23.8799 47.4549 23.8799Z" fill="black"/>
<path d="M63.4494 17.3016L61.2993 19.5244V23.6396H56.827V1.35169H61.2993V13.9675L67.8357 7.47935H73.168L66.7463 14.3279L73.7414 23.6396H68.323L63.4494 17.3016Z" fill="black"/>
<path d="M85.7005 22.8586C85.261 23.199 84.7163 23.4593 84.0665 23.6396C83.4357 23.7998 82.7668 23.8799 82.0597 23.8799C80.2249 23.8799 78.801 23.3892 77.7881 22.408C76.7942 21.4268 76.2973 19.985 76.2973 18.0826V11.4443H73.9178V7.8398H76.2973V3.90488H80.7696V7.8398H84.6112V11.4443H80.7696V18.0225C80.7696 18.7034 80.932 19.234 81.257 19.6145C81.601 19.975 82.0788 20.1552 82.6904 20.1552C83.3975 20.1552 83.9996 19.9549 84.4965 19.5544L85.7005 22.8586Z" fill="black"/>
<path d="M94.4321 7.23905C96.8211 7.23905 98.6559 7.8398 99.9364 9.0413C101.217 10.2228 101.857 12.015 101.857 14.418V23.6396H97.6716V21.627C96.8307 23.1289 95.2635 23.8799 92.97 23.8799C91.785 23.8799 90.753 23.6696 89.8738 23.2491C89.0138 22.8285 88.3544 22.2478 87.8957 21.5069C87.437 20.766 87.2077 19.9249 87.2077 18.9837C87.2077 17.4819 87.7428 16.3004 88.8131 15.4393C89.9025 14.5782 91.5748 14.1477 93.8301 14.1477H97.3849C97.3849 13.1264 97.0887 12.3454 96.4962 11.8048C95.9037 11.2441 95.015 10.9637 93.8301 10.9637C93.0082 10.9637 92.196 11.1039 91.3932 11.3842C90.6096 11.6446 89.9407 12.005 89.3865 12.4656L87.781 9.19149C88.622 8.57071 89.6254 8.09011 90.7912 7.74969C91.9762 7.40926 93.1898 7.23905 94.4321 7.23905ZM94.0881 20.7259C94.8526 20.7259 95.531 20.5457 96.1235 20.1852C96.716 19.8048 97.1365 19.2541 97.3849 18.5332V16.8811H94.3174C92.4826 16.8811 91.5652 17.5119 91.5652 18.7735C91.5652 19.3742 91.785 19.8548 92.2246 20.2153C92.6833 20.5557 93.3045 20.7259 94.0881 20.7259Z" fill="black"/>
<path d="M105.905 7.47935H110.377V23.6396H105.905V7.47935ZM108.141 5.22653C107.319 5.22653 106.65 4.97622 106.134 4.4756C105.618 3.97497 105.36 3.35419 105.36 2.61327C105.36 1.87234 105.618 1.25156 106.134 0.75094C106.65 0.250313 107.319 0 108.141 0C108.963 0 109.632 0.240301 110.148 0.720903C110.664 1.2015 110.922 1.80225 110.922 2.52316C110.922 3.30413 110.664 3.95494 110.148 4.4756C109.632 4.97622 108.963 5.22653 108.141 5.22653Z" fill="black"/>
<path d="M114.528 1.35169H119V23.6396H114.528V1.35169Z" fill="black"/>
</svg>
